<?xml version="1.0" encoding="UTF-8"?>
<svg id="Layer_1" data-name="Layer 1" xmlns="http://www.w3.org/2000/svg" viewBox="0 0 100 91.42">
  <defs>
    <style>
      .cls-1 {
        fill: #002388;
      }
    </style>
  </defs>
  <path class="cls-1" d="m0,45.71c0,25.2,20.51,45.71,45.71,45.71,12.53,0,23.91-5.07,32.17-13.27-6.63,4.84-14.78,7.69-23.59,7.69-22.13,0-40.13-18-40.13-40.13S32.16,5.58,54.29,5.58c8.81,0,16.96,2.85,23.59,7.69C69.61,5.07,58.24,0,45.71,0,20.51,0,0,20.51,0,45.71Z"/>
  <path class="cls-1" d="m19.74,45.71c0,20.47,16.65,37.12,37.12,37.12,10.42,0,19.85-4.31,26.6-11.24-5.11,3.57-11.32,5.67-18.02,5.67-17.39,0-31.55-14.15-31.55-31.55s14.15-31.55,31.55-31.55c6.7,0,12.91,2.09,18.02,5.67-6.76-6.94-16.18-11.24-26.6-11.24-20.47,0-37.12,16.65-37.12,37.12Z"/>
  <path class="cls-1" d="m39.48,45.71c0,15.73,12.81,28.54,28.54,28.54,8.29,0,15.78-3.56,21-9.24-3.58,2.31-7.85,3.66-12.42,3.66-12.66,0-22.96-10.3-22.96-22.96,0-12.66,10.3-22.96,22.96-22.96,4.58,0,8.84,1.35,12.42,3.66-5.23-5.67-12.71-9.24-21-9.24-15.73,0-28.54,12.81-28.54,28.54Z"/>
  <path class="cls-1" d="m59.23,45.71c0,11,8.95,19.96,19.96,19.96,7.44,0,13.95-4.09,17.37-10.15-2.62,2.82-6.36,4.58-10.51,4.58-7.93,0-14.38-6.45-14.38-14.38,0-7.93,6.45-14.38,14.38-14.38,4.15,0,7.89,1.76,10.51,4.58-3.42-6.06-9.93-10.15-17.37-10.15-11,0-19.96,8.95-19.96,19.96Z"/>
  <circle class="cls-1" cx="88.63" cy="45.71" r="11.37"/>
</svg>