<?xml version="1.0" encoding="UTF-8"?>
<svg id="Layer_1" data-name="Layer 1" xmlns="http://www.w3.org/2000/svg" viewBox="0 0 115.5 115.5">
  <defs>
    <style>
      .cls-1 {
        fill: #002388;
        stroke: #002388;
        stroke-miterlimit: 10;
        stroke-width: 2px;
      }
    </style>
  </defs>
  <path class="cls-1" d="m57.75,114.5C26.46,114.5,1,89.04,1,57.75S26.46,1,57.75,1s56.75,25.46,56.75,56.75-25.46,56.75-56.75,56.75Zm0-110C28.39,4.5,4.5,28.39,4.5,57.75s23.89,53.25,53.25,53.25,53.25-23.89,53.25-53.25S87.11,4.5,57.75,4.5Z"/>
  <path class="cls-1" d="m47.75,104.5C21.97,104.5,1,83.53,1,57.75S21.97,11,47.75,11s46.75,20.97,46.75,46.75-20.97,46.75-46.75,46.75Zm0-90C23.9,14.5,4.5,33.9,4.5,57.75s19.4,43.25,43.25,43.25,43.25-19.4,43.25-43.25S71.6,14.5,47.75,14.5Z"/>
  <path class="cls-1" d="m37.75,94.5C17.49,94.5,1,78.01,1,57.75S17.49,21,37.75,21s36.75,16.49,36.75,36.75-16.49,36.75-36.75,36.75Zm0-70c-18.33,0-33.25,14.92-33.25,33.25s14.92,33.25,33.25,33.25,33.25-14.92,33.25-33.25-14.92-33.25-33.25-33.25Z"/>
  <path class="cls-1" d="m27.75,84.5c-14.75,0-26.75-12-26.75-26.75s12-26.75,26.75-26.75,26.75,12,26.75,26.75-12,26.75-26.75,26.75Zm0-50c-12.82,0-23.25,10.43-23.25,23.25s10.43,23.25,23.25,23.25,23.25-10.43,23.25-23.25-10.43-23.25-23.25-23.25Z"/>
  <path class="cls-1" d="m19.75,74.5c-9.24,0-16.75-7.51-16.75-16.75s7.51-16.75,16.75-16.75,16.75,7.51,16.75,16.75-7.51,16.75-16.75,16.75Zm0-30c-7.31,0-13.25,5.94-13.25,13.25s5.94,13.25,13.25,13.25,13.25-5.94,13.25-13.25-5.94-13.25-13.25-13.25Z"/>
</svg>