<?xml version="1.0" encoding="UTF-8"?>
<svg id="Layer_1" data-name="Layer 1" xmlns="http://www.w3.org/2000/svg" viewBox="0 0 526.52 106.5">
  <defs>
    <style>
      .cls-1 {
        font-family: MontserratRoman-Light, Montserrat;
        font-variation-settings: 'wght' 300;
        font-weight: 300;
        letter-spacing: -.04em;
      }

      .cls-2 {
        font-family: MontserratRoman-SemiBold, Montserrat;
        font-variation-settings: 'wght' 600;
        font-weight: 600;
        letter-spacing: -.04em;
      }

      .cls-3, .cls-4 {
        fill: #002388;
      }

      .cls-4 {
        font-size: 80px;
      }
    </style>
  </defs>
  <g>
    <path class="cls-3" d="m116.5,53.25c0,29.36-23.89,53.25-53.25,53.25-14.6,0-27.85-5.91-37.48-15.46,7.72,5.64,17.22,8.96,27.48,8.96,25.78,0,46.75-20.97,46.75-46.75,0-25.78-20.97-46.75-46.75-46.75-10.26,0-19.76,3.32-27.48,8.96C35.4,5.91,48.65,0,63.25,0c29.36,0,53.25,23.89,53.25,53.25Z"/>
    <path class="cls-3" d="m93.5,53.25c0,23.85-19.4,43.25-43.25,43.25-12.14,0-23.12-5.02-30.99-13.1,5.95,4.16,13.19,6.6,20.99,6.6,20.26,0,36.75-16.49,36.75-36.75,0-20.26-16.49-36.75-36.75-36.75-7.8,0-15.04,2.44-20.99,6.6,7.87-8.08,18.85-13.1,30.99-13.1,23.85,0,43.25,19.4,43.25,43.25Z"/>
    <path class="cls-3" d="m70.5,53.25c0,18.33-14.92,33.25-33.25,33.25-9.66,0-18.38-4.15-24.47-10.76,4.17,2.69,9.14,4.26,14.47,4.26,14.75,0,26.75-12,26.75-26.75,0-14.75-12-26.75-26.75-26.75-5.33,0-10.3,1.57-14.47,4.26,6.09-6.61,14.81-10.76,24.47-10.76,18.33,0,33.25,14.92,33.25,33.25Z"/>
    <path class="cls-3" d="m47.5,53.25c0,12.82-10.43,23.25-23.25,23.25-8.67,0-16.25-4.77-20.24-11.83,3.05,3.28,7.41,5.33,12.24,5.33,9.24,0,16.75-7.51,16.75-16.75s-7.51-16.75-16.75-16.75c-4.83,0-9.19,2.05-12.24,5.33,3.99-7.06,11.57-11.83,20.24-11.83,12.82,0,23.25,10.43,23.25,23.25Z"/>
    <path class="cls-3" d="m26.5,53.25c0,7.31-5.94,13.25-13.25,13.25-7.31,0-13.25-5.94-13.25-13.25s5.94-13.25,13.25-13.25c7.31,0,13.25,5.94,13.25,13.25Z"/>
  </g>
  <text class="cls-4" transform="translate(131.17 76.89)"><tspan class="cls-2" x="0" y="0">Echo</tspan><tspan class="cls-1" x="193.76" y="0">Pulse</tspan></text>
</svg>