<?xml version="1.0" encoding="UTF-8"?>
<svg id="Layer_1" data-name="Layer 1" xmlns="http://www.w3.org/2000/svg" viewBox="0 0 15.98 14.9">
  <g>
    <path d="m6.53,13.87h0c-.12.04-.24.07-.36.09-.32.07-.65.1-.97.1-.11,0-.22,0-.34-.01,0,0,0,0-.01,0-.02,0-.03,0-.05,0-.17-.01-.34-.04-.51-.07h0s-.04,0-.06-.01c-.02,0-.05-.01-.07-.02-.05-.01-.11-.03-.16-.04-.03,0-.06-.02-.09-.03-.6-.17-1.16-.46-1.65-.86-.5-.4-.9-.89-1.2-1.45-.02-.03-.03-.06-.05-.09-.05-.1-.1-.21-.14-.31-.01-.02-.02-.05-.03-.07,0-.02-.02-.05-.03-.07,0,0,0,0,0-.01h0c-.05-.14-.1-.28-.13-.42,0-.02-.01-.04-.02-.06h0s0-.04-.01-.06h0c-.01-.05-.03-.11-.04-.17-.06-.31-.1-.62-.1-.94.01.04.03.07.05.11.07.15.14.31.22.45.04.07.08.15.12.22.03.05.06.11.09.16.11.18.24.36.37.54.04.09.08.18.13.26,0,.02.02.03.03.05.57,1.05,1.56,1.84,2.71,2.16.02,0,.03,0,.05.01.24.06.49.11.74.13.05.02.11.04.16.05h0s0,0,0,0c.07.02.15.05.22.07.09.03.19.05.28.08,0,0,0,0,0,0,.09.02.18.05.27.07.02,0,.04,0,.06.01.02,0,.03,0,.05.01.12.03.24.05.37.07.04,0,.09.02.13.02Z"/>
    <g>
      <g>
        <path d="m4.85,14.05l-.04.02c-.33.16-.68.25-1.05.28-.08,0-.16,0-.24,0h-.02c-.09,0-.17,0-.26-.01-.01,0-.02,0-.04,0-.02,0-.03,0-.05,0,0,0,0,0,0,0-.06,0-.13-.02-.19-.03,0,0-.01,0-.02,0-.04,0-.07-.01-.11-.02-1.01-.23-1.85-.97-2.19-1.97-.03-.08-.05-.16-.07-.24h0s0-.02,0-.03c-.03-.11-.05-.23-.06-.35h0s-.01-.09-.01-.14c-.03-.37,0-.73.11-1.08,0,.02,0,.04.01.06h0s.01.04.02.06c.04.14.08.28.13.41h0s0,0,0,0c0,0,0,0,0,.01,0,.02.02.05.03.07,0,.02.02.05.03.07,0,.07,0,.14,0,.21,0,.08.02.15.03.23,0,.05.02.11.03.16.28,1.3,1.46,2.23,2.79,2.21.05,0,.1,0,.15,0h0s.02,0,.03,0c.09,0,.18-.02.26-.03.02,0,.05.01.07.02.02,0,.04,0,.06.01h0c.17.03.34.06.51.07.02,0,.03,0,.05,0,0,0,0,0,.01,0Z"/>
        <path d="m2.97,14.3c.06.01.12.02.18.03,0,0,0,0,0,0-.06,0-.13-.02-.19-.03Z"/>
      </g>
      <g>
        <path d="m3.16,14.33s0,0,0,0c-.06,0-.12-.02-.18-.03.06.01.12.02.19.03Z"/>
        <path d="m2.97,14.3c.06.01.12.02.18.03,0,0,0,0,0,0-.06,0-.13-.02-.19-.03Z"/>
        <path d="m3.21,14.34l-.03.02c-.29.17-.62.25-.96.25-.02,0-.04,0-.06,0-.03,0-.07,0-.1,0h0s-.02,0-.03,0c-.06,0-.11-.01-.17-.02-.01,0-.03,0-.04,0h0c-.39-.08-.74-.28-1.02-.57-.2-.22-.35-.47-.44-.75H.36s0-.03-.01-.04H.35s0-.03-.01-.04c-.01-.04-.02-.08-.03-.12,0-.01,0-.02,0-.03,0-.01,0-.02,0-.03-.02-.13-.03-.26-.03-.39,0-.31.09-.6.23-.87l.02-.04c.01.12.04.23.06.35,0,0,0,.02,0,.03h0c-.04.14-.06.29-.07.44-.03.99.75,1.81,1.74,1.84.2,0,.4-.02.59-.08.04,0,.07.02.11.02,0,0,.01,0,.02,0,.06.01.12.02.18.03.02,0,.03,0,.05,0Z"/>
      </g>
      <path d="m2.06,14.6h-.02c-.19.12-.4.17-.61.17-.01,0-.02,0-.04,0-.69-.02-1.23-.6-1.21-1.28,0-.18.05-.35.12-.5,0,.01,0,.02,0,.03,0,.01,0,.02,0,.03,0,.04.02.08.03.12,0,.01,0,.03.01.04H.35s0,.03.01.04H.36c-.01.06-.02.13-.02.19-.02.63.48,1.16,1.11,1.18.13,0,.25-.01.37-.05h0s.03,0,.04,0c.06.01.11.02.17.02.01,0,.02,0,.03,0Z"/>
      <path d="m1.44,14.75h-.01c-.11.09-.25.13-.38.14,0,0-.02,0-.02,0-.44.02-.82-.32-.84-.76,0-.11.01-.22.05-.33,0,0,0,.01,0,.02,0,0,0,.01,0,.02,0,.02.02.05.02.07,0,0,0,.02,0,.02h0s0,.02,0,.02h0s0,.08,0,.12c.02.4.37.72.77.69.08,0,.16-.02.23-.05h0s.02,0,.03,0c.04,0,.07,0,.11,0,0,0,.01,0,.02,0Z"/>
    </g>
  </g>
  <path d="m8.87.04C8.59.02,8.31,0,8.03,0c-.01,0-.03,0-.04,0-.02,0-.03,0-.05,0-.28,0-.56.02-.83.04C3.11.43,0,3.39,0,6.99c0,.74.13,1.45.38,2.12.03.09.07.18.1.26.01.04.03.07.05.11.07.15.14.31.22.45.04.07.08.15.12.22.03.05.06.11.09.16.11.18.24.36.37.54.05.07.11.14.16.2,0,.01.02.02.03.03.14.17.29.34.45.49,0,0,0,0,0,0,.62.62,1.35,1.14,2.18,1.53.01,0,.02,0,.03.01.26.12.53.23.8.33.05.02.11.04.16.05h0s0,0,0,0c.07.02.15.05.22.07.09.03.19.05.28.08,0,0,0,0,0,0,.09.02.18.05.27.07.02,0,.04,0,.06.01.02,0,.03,0,.05.01.12.03.24.05.37.07.04,0,.09.02.13.02.27.04.55.08.82.1.21.01.43.02.64.02,4.41,0,7.99-3.13,7.99-6.99C15.98,3.39,12.87.42,8.87.04Zm-.38,9.95h-4c-.28,0-.5-.22-.5-.5s.22-.5.5-.5h4c.28,0,.5.22.5.5s-.22.5-.5.5Zm3-2.5h-6.99c-.28,0-.5-.22-.5-.5s.22-.5.5-.5h6.99c.28,0,.5.22.5.5s-.22.5-.5.5Zm.3-2.59c-.08.06-.18.1-.3.1h-6.99c-.17,0-.32-.09-.41-.22,0,0,0,0,0,0-.05-.08-.09-.18-.09-.28,0-.28.22-.5.5-.5h6.99c.28,0,.5.22.5.5,0,.17-.08.31-.2.4Z"/>
</svg>