<?xml version="1.0" standalone="no"?>
<!DOCTYPE svg PUBLIC "-//W3C//DTD SVG 20010904//EN"
 "http://www.w3.org/TR/2001/REC-SVG-20010904/DTD/svg10.dtd">
<svg version="1.0" xmlns="http://www.w3.org/2000/svg"
 width="576.000000pt" height="576.000000pt" viewBox="0 0 576.000000 576.000000"
 preserveAspectRatio="xMidYMid meet">
<metadata>
Created by potrace 1.14, written by Peter Selinger 2001-2017
</metadata>
<g transform="translate(0.000000,576.000000) scale(0.100000,-0.100000)"
fill="#000000" stroke="none">
<path d="M2929 5496 c-2 -2 -38 -7 -79 -10 -462 -40 -967 -246 -1354 -554 -73
-58 -199 -171 -204 -183 -2 -4 43 23 100 61 87 57 262 152 333 180 11 4 40 17
65 28 80 35 306 101 400 117 42 7 98 16 125 21 136 25 523 24 645 -1 14 -3 45
-8 70 -11 70 -9 296 -69 390 -103 208 -76 488 -235 656 -372 380 -310 660
-739 784 -1200 25 -93 59 -280 68 -379 8 -97 8 -321 0 -430 -6 -75 -11 -108
-32 -220 -37 -202 -107 -402 -209 -604 -257 -508 -697 -905 -1232 -1112 -55
-21 -102 -39 -105 -39 -3 -1 -25 -7 -50 -15 -59 -18 -49 -15 -175 -44 -176
-39 -283 -51 -490 -51 -137 0 -261 8 -325 20 -13 3 -42 7 -65 11 -22 3 -60 10
-85 16 -25 5 -53 11 -62 13 -211 44 -514 175 -723 314 -101 67 -104 69 -60 27
298 -286 683 -508 1077 -622 65 -18 129 -36 141 -38 12 -2 42 -9 67 -14 25 -6
63 -13 85 -16 23 -4 50 -8 61 -10 70 -14 205 -21 384 -21 258 0 340 8 559 56
494 107 935 349 1296 713 209 210 357 415 487 673 129 255 207 499 252 788 43
273 37 601 -15 870 -38 197 -97 395 -155 523 -13 29 -24 55 -24 58 0 12 -106
215 -153 294 -192 318 -482 622 -787 824 -251 167 -452 258 -785 359 -58 18
-238 54 -310 62 -27 4 -61 9 -75 12 -31 6 -485 15 -491 9z"/>
<path d="M2318 5005 c-2 -2 -30 -6 -63 -9 -33 -4 -87 -11 -120 -17 -33 -6 -69
-12 -80 -14 -41 -6 -152 -37 -230 -62 -291 -94 -572 -261 -795 -472 l-75 -71
63 39 c126 79 349 183 442 206 8 3 42 12 75 21 211 57 556 75 737 38 13 -2 39
-7 58 -10 114 -17 334 -91 465 -156 220 -109 461 -304 616 -498 109 -136 213
-322 277 -495 46 -123 88 -285 97 -370 1 -11 6 -51 10 -90 42 -382 -62 -807
-278 -1145 -34 -52 -64 -97 -67 -100 -3 -3 -21 -25 -40 -50 -52 -68 -197 -215
-270 -275 -242 -197 -593 -354 -875 -390 -180 -23 -428 -24 -530 -2 -11 3 -40
8 -65 12 -65 11 -69 11 -140 30 -153 40 -363 132 -505 222 l-70 44 51 -50
c185 -182 448 -352 697 -450 167 -66 402 -124 567 -139 148 -13 414 -7 535 13
17 3 46 8 65 11 361 58 770 263 1061 531 376 348 627 841 676 1328 15 146 8
452 -12 570 -83 482 -290 876 -635 1211 -307 298 -771 524 -1170 570 -30 3
-64 8 -75 11 -21 5 -392 12 -397 8z"/>
<path d="M1650 4503 c-349 -44 -672 -194 -923 -430 -83 -77 -90 -91 -32 -58
28 16 55 32 60 35 47 34 293 112 390 125 28 4 61 9 75 11 14 3 71 5 126 5 542
3 1033 -330 1232 -836 79 -200 110 -450 81 -655 -107 -757 -830 -1269 -1573
-1114 -141 29 -361 118 -431 173 l-20 16 20 -24 c96 -115 295 -262 471 -348
308 -151 613 -196 984 -148 19 3 80 16 135 30 505 126 927 494 1122 980 39 95
86 259 97 335 64 447 -24 846 -263 1196 -214 313 -526 543 -883 650 -83 24
-102 29 -168 40 -19 3 -37 7 -40 9 -10 6 -166 18 -260 19 -52 1 -142 -4 -200
-11z"/>
<path d="M1118 4019 c-94 -10 -160 -19 -168 -24 -4 -2 -17 -6 -31 -8 -90 -17
-252 -92 -364 -167 -123 -83 -278 -248 -331 -353 l-17 -32 39 39 c55 54 168
128 244 159 63 25 100 37 110 36 3 0 19 5 35 11 42 16 227 22 304 9 289 -46
547 -259 646 -532 22 -63 28 -85 41 -167 19 -123 5 -260 -37 -385 -88 -256
-313 -461 -584 -531 -96 -24 -294 -25 -390 0 -113 29 -262 107 -340 178 -54
50 -65 56 -52 33 55 -107 203 -266 330 -353 133 -92 320 -168 457 -187 30 -4
64 -9 75 -12 29 -6 213 -4 265 3 129 16 296 72 415 139 288 161 504 457 564
775 20 104 21 115 21 225 1 124 -16 230 -55 355 -134 423 -535 747 -970 785
-117 10 -137 11 -207 4z"/>
<path d="M545 3519 c-229 -43 -422 -209 -499 -429 -86 -248 -12 -538 178 -699
15 -14 34 -30 41 -37 24 -24 140 -83 210 -106 99 -32 268 -32 375 1 285 87
475 352 464 646 -2 44 -5 89 -7 100 -37 161 -110 286 -224 380 -54 44 -152
103 -188 112 -5 2 -41 11 -80 22 -72 20 -195 24 -270 10z"/>
</g>
</svg>
